<svg xmlns="http://www.w3.org/2000/svg" viewBox="0 0 509 509"><defs><style>.cls-1{fill:#fff;}</style></defs><title>linkedin-icon</title><g id="Layer_2" data-name="Layer 2"><g id="Layer_1-2" data-name="Layer 1"><path id="linkedin" d="M254.5,0C114,0,0,114,0,254.5S114,509,254.5,509,509,395,509,254.5,395,0,254.5,0Z"/><rect class="cls-1" x="117.24" y="195.46" width="60.34" height="186.28"/><path class="cls-1" d="M150.61,167.23h0c-20.57,0-33.37-14.17-33.37-32.11S131.41,103,151.87,103s33.37,14.17,33.37,32.11S172.44,167.23,150.61,167.23Z"/><path class="cls-1" d="M399.76,385.62H339.41V285.4c0-25.71-9-42.4-30.85-42.4-16.69,0-27,11.54-30.85,23.09a49.12,49.12,0,0,0-2.52,15.43v104H214.84s1.26-169.6,0-186.28h60.34v27c7.66-12.8,21.83-30.85,53.94-30.85,39.78,0,69.37,27,69.37,83.54Z"/></g></g></svg>