<svg xmlns="http://www.w3.org/2000/svg" viewBox="0 0 169.71 55"><defs><style>.cls-1{fill:#e21414;}.cls-2{fill:#fdfdfd;}.cls-3{fill:#fcfcfc;}.cls-4{fill:#ececec;}.cls-5{fill:#423f40;}.cls-6{fill:#4a4748;}.cls-7{fill:#484546;}.cls-8{fill:#575455;}</style></defs><title>logo</title><g id="Layer_2" data-name="Layer 2"><g id="Layer_1-2" data-name="Layer 1"><path class="cls-1" d="M33.56,55,0,0H67.1ZM30.28,38.29l.24,0c.23-6,0-12,.12-18.1L13.91,11l-.14.2ZM43.57,27.23l-6.93-3.78V38.59Zm9.69-15.91-.21-.23L39.73,18.4l6.93,3.78Zm-16.66,2L50.2,5.93H36.61ZM17.18,5.9l0,.16,13.28,7.25V5.9Z"/><path class="cls-2" d="M130.06,12.62c3.82,0,7.24,2.36,8.13,5.62a7.94,7.94,0,0,1-6.78,10.13c-3.93.53-7.75-1.39-9.19-4.57-2.32-5.12,1.16-10.8,7.16-11.18C129.61,12.6,129.84,12.62,130.06,12.62Zm0,12.61a4.44,4.44,0,0,0,4.48-4.74,4.54,4.54,0,0,0-4.64-4.72,4.69,4.69,0,0,0-4.49,4.82A4.57,4.57,0,0,0,130.06,25.22Z"/><path class="cls-2" d="M149.72,21.55l5,6.37h-4.35c-1.3-1.71-2.68-3.49-4-5.29-.3-.41-.59-.67-1.19-.46v5.76h-3.61V13.06c2.64.1,5.25-.29,7.81.37,2.82.73,4.18,3.26,3.15,5.66A4.89,4.89,0,0,1,149.72,21.55Zm-4.47-6V20a6.56,6.56,0,0,0,2.9-.3,1.94,1.94,0,0,0,1.26-2,1.77,1.77,0,0,0-1.33-1.79A12.62,12.62,0,0,0,145.24,15.55Z"/><path class="cls-2" d="M104.09,17.26a5.83,5.83,0,0,0-5.55-1.38,4.75,4.75,0,0,0,1,9.34,8.23,8.23,0,0,0,4.66-1.3l.49-.29a.79.79,0,0,1,.23,0l-.21,3.55a9.47,9.47,0,0,1-8.78.5,7.51,7.51,0,0,1-4.82-6.87,7.77,7.77,0,0,1,2.66-6.17.76.76,0,0,0,.27-.08,9.24,9.24,0,0,1,6.8-1.87,8.14,8.14,0,0,1,4,1.32c-.11,1-.22,1.92-.32,2.84C104.51,17.12,104.47,17.36,104.09,17.26Z"/><path class="cls-2" d="M115.1,27.94h-3.87V16.08h-5.3a17.45,17.45,0,0,1,0-2.93h14.44v2.91H115.1Z"/><path class="cls-2" d="M76.38,18.08l2.5-4.95h3.69L74.66,28.7,66.76,13.17h4L74.6,21c0,.15,0,.32.29.34.46-.91.94-1.84,1.4-2.78A1.75,1.75,0,0,0,76.38,18.08Z"/><path class="cls-2" d="M163.32,20.79c0,2.4,0,4.66,0,6.91,0,.06,0,.11-.09.22H159.6V21l-5.93-7.82h4.61l3.52,4.75,3.91-4.77h4Z"/><path class="cls-2" d="M150.33,32.58a5.38,5.38,0,0,1,1.59,10.6,5.83,5.83,0,0,1-7.37-4.25,5.41,5.41,0,0,1,5.3-6.36Zm0,2.11a3.12,3.12,0,0,0-3.2,3.22,3.16,3.16,0,0,0,3.13,3.32,3.27,3.27,0,0,0,.07-6.54Z"/><path class="cls-2" d="M98.87,33.59a6.51,6.51,0,0,1,6.35-.44,5.26,5.26,0,0,1,3.05,5.68,5.71,5.71,0,0,1-4.61,4.47,7.35,7.35,0,0,1-4.21-.64,4.27,4.27,0,0,0-.41-.37,5.15,5.15,0,0,1-2.32-4.68A5.88,5.88,0,0,1,98.87,33.59Zm3.67,1.1a3,3,0,0,0-3.17,3.25,3.11,3.11,0,0,0,3.05,3.3A3.18,3.18,0,0,0,105.67,38,3.12,3.12,0,0,0,102.54,34.69Z"/><path class="cls-2" d="M72,32.46l7.44,6.21V32.89h2.31v10.6l-7.39-6.14V42.9A6.91,6.91,0,0,1,72,43Z"/><path class="cls-2" d="M168,43.46l-7.33-6.12v5.58a8.85,8.85,0,0,1-2.39.07V32.44l7.44,6.22V33a7.88,7.88,0,0,1,2.28-.16Z"/><path class="cls-2" d="M92.23,38.73V32.9h2.23V43.47l-7.39-6.15v5.61a11.43,11.43,0,0,1-2.33.09V32.46Z"/><path class="cls-2" d="M84.33,13.12h3.74V27.9H84.33Z"/><path class="cls-2" d="M126.84,43l-.65-1.36h-4.86L120.61,43h-2.54l5.8-10.51L129.53,43Zm-3.1-6.62-1.68,3.58h3.33Z"/><path class="cls-3" d="M128.21,32.89h9.87a6.79,6.79,0,0,1,0,2h-3.61v8.06a8.56,8.56,0,0,1-2.6,0V34.9h-3.64A7.15,7.15,0,0,1,128.21,32.89Z"/><path class="cls-4" d="M69,43H66.51V32.87a12.59,12.59,0,0,1,2.48,0Z"/><path class="cls-2" d="M139.76,32.89h2.47V43h-2.47Z"/><path class="cls-5" d="M108.45,32.67h3.19l2.65,5.49,2.74-5.5h2.92c-1.91,3.71-3.63,7.43-5.78,11.2Zm5.76,10.76L119.52,33a9.63,9.63,0,0,0-2.37,0c-1,1.85-1.75,3.83-2.89,5.7l-2.77-5.72a14.35,14.35,0,0,0-2.58,0Z"/><path class="cls-6" d="M104.09,17.26c.38.09.41-.14.44-.43.09-.92.2-1.84.32-2.84a8.14,8.14,0,0,0-4-1.32,9.24,9.24,0,0,0-6.8,1.87.76.76,0,0,1-.27.08,6.56,6.56,0,0,1,4.49-2.11,9.93,9.93,0,0,1,5.75.75,2,2,0,0,1,1,.73,26.33,26.33,0,0,1-.4,3.74C104.3,17.72,104.18,17.52,104.09,17.26Z"/><path class="cls-7" d="M98.87,33.59a5.88,5.88,0,0,0-2.15,4A5.15,5.15,0,0,0,99,42.29a4.27,4.27,0,0,1,.41.37,4.32,4.32,0,0,1-2.84-3.56,5.24,5.24,0,0,1,1.82-5.35A1.34,1.34,0,0,1,98.87,33.59Z"/><path class="cls-8" d="M76.38,18.08a1.75,1.75,0,0,1-.09.46c-.46.94-.94,1.87-1.4,2.78-.31,0-.29-.18-.29-.34.66-.48.78-1.3,1.19-1.94C76,18.73,76,18.32,76.38,18.08Z"/><path class="cls-2" d="M114.21,43.43,108.91,33a14.35,14.35,0,0,1,2.58,0l2.77,5.72c1.14-1.87,1.88-3.85,2.89-5.7a9.63,9.63,0,0,1,2.37,0Z"/></g></g></svg>